<?xml version="1.0" encoding="UTF-8" standalone="no"?>
<!-- Generator: Adobe Illustrator 23.0.3, SVG Export Plug-In . SVG Version: 6.00 Build 0)  -->

<svg
   version="1.1"
   id="Layer_1"
   x="0px"
   y="0px"
   viewBox="0 0 28 24"
   xml:space="preserve"
   sodipodi:docname="308b968b09a2731b84c0e98b04bc2498.svg"
   width="28"
   height="24"
   xmlns:inkscape="http://www.inkscape.org/namespaces/inkscape"
   xmlns:sodipodi="http://sodipodi.sourceforge.net/DTD/sodipodi-0.dtd"
   xmlns:xlink="http://www.w3.org/1999/xlink"
   xmlns="http://www.w3.org/2000/svg"
   xmlns:svg="http://www.w3.org/2000/svg"><defs
   id="defs57" /><sodipodi:namedview
   id="namedview55"
   pagecolor="#ffffff"
   bordercolor="#666666"
   borderopacity="1.0"
   inkscape:pageshadow="2"
   inkscape:pageopacity="0.0"
   inkscape:pagecheckerboard="0" />
<style
   type="text/css"
   id="style2">
	.st0{clip-path:url(#SVGID_2_);}
	.st1{clip-path:url(#SVGID_4_);}
</style>
<g
   id="g52"
   transform="translate(-2,-4)">
	<g
   id="g6">
		<path
   d="m 16,28 c -0.552734,0 -1,-0.447266 -1,-1 V 5 c 0,-0.5522461 0.447266,-1 1,-1 0.552734,0 1,0.4477539 1,1 v 22 c 0,0.552734 -0.447266,1 -1,1 z"
   id="path4" />
	</g>
	<g
   id="g10">
		<path
   d="m 11.666992,26 c -0.552734,0 -1,-0.447266 -1,-1 V 7 c 0,-0.5522461 0.447266,-1 1,-1 0.552735,0 1,0.4477539 1,1 v 18 c 0,0.552734 -0.447265,1 -1,1 z"
   id="path8" />
	</g>
	<g
   id="g24">
		<g
   id="g20">
			<defs
   id="defs13">
				<line
   id="SVGID_1_"
   x1="7.3333335"
   y1="9"
   x2="7.3333335"
   y2="23" />
			</defs>
			<use
   xlink:href="#SVGID_1_"
   style="overflow:visible"
   id="use15"
   x="0"
   y="0"
   width="100%"
   height="100%" />
			<clipPath
   id="SVGID_2_">
				<use
   xlink:href="#SVGID_1_"
   style="overflow:visible"
   id="use17"
   x="0"
   y="0"
   width="100%"
   height="100%" />
			</clipPath>
		</g>
		<path
   d="m 7.3330078,24 c -0.5527344,0 -1,-0.447266 -1,-1 V 9 c 0,-0.5522461 0.4472656,-1 1,-1 0.5527344,0 1,0.4477539 1,1 v 14 c 0,0.552734 -0.4472656,1 -1,1 z"
   id="path22" />
	</g>
	<g
   id="g28">
		<path
   d="M 3,21 C 2.4472656,21 2,20.552734 2,20 v -8 c 0,-0.552246 0.4472656,-1 1,-1 0.5527344,0 1,0.447754 1,1 v 8 c 0,0.552734 -0.4472656,1 -1,1 z"
   id="path26" />
	</g>
	<g
   id="g32">
		<path
   d="m 29,21 c -0.552734,0 -1,-0.447266 -1,-1 v -8 c 0,-0.552246 0.447266,-1 1,-1 0.552734,0 1,0.447754 1,1 v 8 c 0,0.552734 -0.447266,1 -1,1 z"
   id="path30" />
	</g>
	<g
   id="g46">
		<g
   id="g42">
			<defs
   id="defs35">
				<line
   id="SVGID_3_"
   x1="24.666666"
   y1="9"
   x2="24.666666"
   y2="23" />
			</defs>
			<use
   xlink:href="#SVGID_3_"
   style="overflow:visible"
   id="use37"
   x="0"
   y="0"
   width="100%"
   height="100%" />
			<clipPath
   id="SVGID_4_">
				<use
   xlink:href="#SVGID_3_"
   style="overflow:visible"
   id="use39"
   x="0"
   y="0"
   width="100%"
   height="100%" />
			</clipPath>
		</g>
		<path
   d="m 24.666992,24 c -0.552734,0 -1,-0.447266 -1,-1 V 9 c 0,-0.5522461 0.447266,-1 1,-1 0.552735,0 1,0.4477539 1,1 v 14 c 0,0.552734 -0.447265,1 -1,1 z"
   id="path44" />
	</g>
	<g
   id="g50">
		<path
   d="m 20.333008,26 c -0.552735,0 -1,-0.447266 -1,-1 V 7 c 0,-0.5522461 0.447265,-1 1,-1 0.552734,0 1,0.4477539 1,1 v 18 c 0,0.552734 -0.447266,1 -1,1 z"
   id="path48" />
	</g>
</g>
</svg>
